PathFileType	4	(X/Y/Z)	Patient4_TMGait_0pt3_03_left_03.trc.trc
DataRate	CameraRate	NumFrames	NumMarkers	Units	OrigDataRate	OrigDataStartFrame	OrigNumFrames
54.687500000000	54.687500000000	6	33	mm	54.687500000000	124	       141
Frame#	Time	Sacral			L.Shoulder			Chest			R.Shoulder			Neck			R.ASIS			L.ASIS			R.Thigh.Superior			R.Thigh.Lateral			R.Thigh.Inferior			R.Patella			L.Thigh.Superior			L.Thigh.Lateral			L.Thigh.Inferior			L.Patella			L.Shank.Superior			L.Shank.Lateral			L.Shank.Inferior			R.Shank.Superior			R.Shank.Lateral			R.Shank.Inferior			R.Heel			R.Midfoot.Superior			R.Midfoot.Lateral			R.Toe			L.Heel			L.Midfoot.Lateral			L.Midfoot.Superior			L.Toe			L.Elbow			L.Wrist			R.Elbow			R.Wrist			
		X1	Y1	Z1	X2	Y2	Z2	X3	Y3	Z3	X4	Y4	Z4	X5	Y5	Z5	X6	Y6	Z6	X7	Y7	Z7	X8	Y8	Z8	X9	Y9	Z9	X10	Y10	Z10	X11	Y11	Z11	X12	Y12	Z12	X13	Y13	Z13	X14	Y14	Z14	X15	Y15	Z15	X16	Y16	Z16	X17	Y17	Z17	X18	Y18	Z18	X19	Y19	Z19	X20	Y20	Z20	X21	Y21	Z21	X22	Y22	Z22	X23	Y23	Z23	X24	Y24	Z24	X25	Y25	Z25	X26	Y26	Z26	X27	Y27	Z27	X28	Y28	Z28	X29	Y29	Z29	X30	Y30	Z30	X31	Y31	Z31	X32	Y32	Z32	X33	Y33	Z33	

124	6.819142857143	724.535682071992	1008.443935269393	549.135873135537	863.361180272137	1426.563016542471	328.483031395744	996.840105066939	1363.531938673172	467.966463363336	949.535418294219	1442.973710562412	652.228168647724	873.103815855445	1492.438768859704	483.516513334431	965.759511824248	935.164097017512	626.563445754847	910.121511708526	961.106946112850	357.699262796513	968.848881521400	724.649474099922	590.931424785406	879.218012006617	625.329781961404	662.043772271013	931.633487650246	565.718287465644	571.997595822435	916.929386678417	481.010642408972	577.506203892436	977.750331480570	761.130298588599	385.264107315571	908.898007525613	637.768268339555	315.276336954853	1005.885168426631	571.325123834677	375.563010002906	1025.703457193473	511.704139963687	376.077895936647	1013.696056108276	443.025262342669	364.852401939314	958.605530165024	309.418264782646	311.241766538655	1050.667010298112	216.149086201177	369.345614326549	881.617350449630	394.127658264389	586.653962909145	804.930162898689	295.621944100579	651.676511233731	831.274088309686	200.308341435023	583.546849466413	680.187448207825	42.273338246075	556.531421255762	852.857279272911	96.548851830979	589.946679161909	764.327963751574	36.644490772318	630.517458450842	972.316063875668	44.736133176206	616.716496256451	974.101523634680	37.969301206619	406.449039005287	1051.740495429304	40.488151505699	329.964838153610	1121.031728365249	118.515330248379	352.273039923353	1255.770185053460	89.369708173923	333.181442989548	704.482814936558	1105.362445965573	268.716622314355	653.785740040889	851.582151344425	299.663266626307	1121.163019725351	1151.301875234683	766.352877491884	1373.004349593384	1172.530863585692	716.293776523988	
125	6.837428571429	725.626551596530	1007.764994345413	546.571324346838	862.751723196502	1425.369851201246	324.449360950794	996.983411909411	1362.777533502623	463.433946348100	950.276294506015	1442.568453695848	647.617612102064	872.998761153978	1491.525066544466	479.233760599729	966.999227874245	934.436930910231	623.355708279980	910.412094874019	959.660127335477	354.645663240739	968.121854062691	723.361613905931	588.456869144440	877.545766678551	624.979873223641	660.126102911001	928.743517465070	564.662838848976	570.190526372478	913.100480769229	480.364947673704	575.923528714606	977.544736289995	759.305657328684	382.191515213461	906.736493112692	635.869027529719	313.562311209649	1003.861885163423	569.823337420978	373.422461973093	1022.460310289070	509.965544212517	374.371667160750	1011.043644111757	441.009355635988	363.260955570715	955.355256621376	307.347792861403	310.890381029867	1047.587431873993	214.299661349072	368.883363421113	877.428750148603	393.634035243658	585.393761263954	800.480205661296	295.644048809199	650.958190214725	826.310651823528	200.039239051577	583.047007471771	674.660717422229	42.092696662601	556.569877582309	847.331507698076	96.519877900404	589.841627818666	758.810226977806	36.521369768982	630.542342193197	966.783878986117	44.933910687528	616.666128798932	970.843158879059	37.351781866492	407.662905080452	1047.122512049700	39.694577102718	329.785529788465	1117.452118471897	116.651480290072	351.708004266559	1251.608012941129	86.225893231087	330.008190420481	703.394350273119	1104.546901318416	265.700770958226	654.481394287671	850.138608751903	296.429312933260	1128.155048091918	1155.707561752330	760.685691915591	1377.297683570750	1190.841643876718	706.917328828678	
126	6.855714285714	726.894671044033	1007.019557776586	543.792941815020	862.357684702945	1423.976000790980	320.116141232581	997.293967102530	1361.931360359817	458.693174725750	951.092079313420	1442.132467307020	642.753599313222	873.027572072034	1490.525487893862	474.652392382944	968.385068791126	933.666778700603	620.036244050415	911.006013658513	958.206701999436	351.501897120116	967.676891356843	721.998655270072	585.920649474060	876.155375490955	624.513730831994	658.023237724282	926.227883818975	563.535324240541	568.209610000897	909.672890713045	479.606770126266	574.129830520769	978.008756135028	757.841800795448	379.306248034663	905.673091604545	634.255240718955	311.830220427234	1002.902128936598	568.683817563252	371.356785235120	1020.157503609996	508.328203207756	372.650111666213	1009.217321180136	438.968773781139	361.617291098381	952.414843189572	305.469130802360	310.431797665000	1044.365803257439	212.248628139565	368.358264932499	873.532443243407	393.049975058876	583.957101766506	796.251518123055	295.675665459102	650.110705170084	821.473550721970	199.722436875107	582.454969809590	669.151894965388	41.880514154845	556.598621429455	841.837718478625	96.492580691497	589.714852818612	753.313736846529	36.370382396711	630.541305684250	961.279331731645	45.120991275164	616.611504854145	966.566886726545	36.885272596392	408.764197650594	1041.508751918724	38.780636275021	329.501718928242	1113.232831932892	114.354638224318	351.120715453685	1246.649782693712	82.059160022661	326.851908435023	703.435565194893	1102.935289576136	262.198087303824	657.486282919783	847.658068203329	292.290891272111	1134.556998572262	1159.812253436467	754.968032153365	1380.491805469509	1207.536124770488	697.856040189397	
127	6.874000000000	728.311519103776	1006.299933244011	540.826037567924	862.166831564401	1422.442143224501	315.503800975388	997.768540643913	1361.053942527380	453.754293927972	952.005316960774	1441.746742351141	637.646060113077	873.191779696790	1489.505223581101	469.778865989765	969.867733650275	932.906671651483	616.629365054832	911.881001845097	956.849037449110	348.283996934895	967.424628022195	720.606098145061	583.315727115972	874.959489905437	623.984456524336	655.751395411025	924.009628497258	562.380079224656	566.064764147710	906.573730510929	478.776014055400	572.147155735500	979.110694061485	756.833709535324	376.583459817963	905.682275863940	633.017465829875	310.038713185544	1003.000939852627	567.947206703969	369.284509727362	1018.829832721558	506.894564582222	370.876281730568	1008.264292901544	437.044370048842	359.903030985269	949.985934014669	303.873353318638	309.800236954197	1041.256849259793	210.164665704973	367.764362963325	869.879228250740	392.416702910787	582.362631980621	792.193923165519	295.748869427595	649.136831301292	816.742594973146	199.394168728466	581.776418694141	663.659460373048	41.669182299991	556.608419989261	836.380242969353	96.474034456223	589.557262406045	747.838118968645	36.214117032819	630.502793890609	955.797987195586	45.292239478178	616.550465209367	961.668463438722	36.594975697450	409.679366644887	1035.418628361679	37.823045404199	329.158908760487	1108.741589653053	111.844594062895	350.577815770469	1241.335682258675	77.294472759285	324.037714543992	704.531793059918	1100.626086751675	258.234835949491	662.719583731566	844.301898413869	287.254598228616	1140.347449640730	1163.603962858777	749.224806474552	1382.767403468761	1222.535109245830	689.092301873812	
128	6.892285714286	729.835464490281	1005.693672904276	537.686200482166	862.171420269027	1420.834058681912	310.640258382787	998.397842257180	1360.207392804973	448.642260090403	953.019002227240	1441.489808453164	632.316936706967	873.487277919844	1488.529541684352	464.628852250194	971.387379316592	932.213201300187	613.165911832665	913.009090175400	955.679301761949	345.010226405373	967.279917985436	719.240921160768	580.642165814382	873.881352057106	623.450582101237	653.331603444776	922.034102594943	561.247782591180	563.776568114167	903.756587546191	477.912381309855	570.009438168689	980.775044797621	756.330915369192	373.978547655455	906.653499840330	632.207725268417	308.151138594686	1004.062891593070	567.612063558348	367.130942730793	1018.434047004268	505.729939799142	369.018004129114	1008.125229609008	435.340888808720	358.107841380401	948.136716855573	302.629268148420	308.954250673433	1038.382025161331	208.191820255926	367.101714553219	866.440841785817	391.779175800783	580.636080727258	788.269047687483	295.903140074222	648.040243024158	812.107183764051	199.098534256265	581.018477371499	658.181713443466	41.516321950020	556.587417534099	830.965822410739	96.475297441119	589.359276534313	742.381034845916	36.092726707764	630.414522626440	950.331331551898	45.435763663946	616.481841214439	956.436081517491	36.478788496950	410.364749710837	1029.223006392887	36.898381334515	328.792637620288	1104.198648197900	109.338168727872	350.124351009425	1235.956984051476	72.374692100325	321.782706673239	706.619756572088	1097.736310956753	253.848209196515	670.093773194300	840.268529248775	281.329572672696	1145.508034365892	1167.080983837501	743.475662399876	1384.289486968512	1235.801985631525	680.594393171619	
129	6.910571428571	731.412167383314	1005.275087501160	534.377962826651	862.369233339964	1419.217206195689	305.558875544543	999.166066371346	1359.449688878857	443.396918917854	954.113268685362	1441.430706749284	626.799824956966	873.903778010746	1487.658617363119	459.227132919733	972.876391472318	931.643028725290	609.682938688041	914.356727291493	954.769427170372	341.701762092611	967.177432350015	717.968759976795	577.912381883652	872.869320939131	622.970026550687	650.788310882224	920.284767674236	560.191197359329	561.375656065303	901.217764781693	477.049448387445	567.760037563757	982.879612075230	756.324670992108	371.433587849190	908.388302929103	631.831925955996	306.139530221284	1005.895330662262	567.632954972245	364.839420904453	1018.837624019130	504.857816847235	367.051326384515	1008.635009358751	433.918832469045	356.230975064567	946.801859648549	301.769581646579	307.883223023158	1035.736624925646	206.435480560849	366.377706189605	863.221355177635	391.181461727927	578.808516083415	784.460506408167	296.183898805887	646.824959818264	807.571071666924	198.885030798782	580.189601619071	652.717522568827	41.507323597128	556.522305378293	825.604079961156	96.511616182910	589.111927063099	736.938255993044	36.065180346552	630.265491907090	944.866952171287	45.531917824768	616.405990687653	951.050942694987	36.509627109870	410.809962101555	1023.138845406225	36.071431425978	328.428216156745	1099.687574450713	107.022849787811	349.783081633834	1230.659529392111	67.705595776597	320.183113077816	709.656242346320	1094.390988572291	249.078178062804	679.517728996005	835.779147488277	274.529890848041	1150.018432298216	1170.249074813763	737.737843937479	1385.198296800080	1247.336308072471	672.323736160628	
